<?xml version="1.0" encoding="utf-8"?>
<!-- Generator: Adobe Illustrator 21.0.0, SVG Export Plug-In . SVG Version: 6.00 Build 0)  -->
<svg version="1.1" id="Layer_2" xmlns="http://www.w3.org/2000/svg" xmlns:xlink="http://www.w3.org/1999/xlink" x="0px" y="0px"
	 viewBox="0 0 1920 462" style="enable-background:new 0 0 1920 462;" xml:space="preserve">
<style type="text/css">
	.st0{fill:#00BCD4;}
</style>
<path class="st0" d="M-7,240c-5.3,0-8,0-8,0S-7,240-7,240c-0.8-17.2-1.6-34.3-2.4-51.5c-0.3-6.4-4.2-22.6-1.4-28.3
	c6.2-12.5,28.5-11.8,43-14.2c212.7-35.9,427.1-14.4,640.8-2.2c182.2,10.4,361.5,3.5,537.4-47.5c57.3-16.6,111.4-36.6,171.6-41.5
	c98.8-8,198.2,8.6,293.4,33.7c48.8,12.9,100.2,29.2,151.2,23.1c40.1-4.8,64.6-24.8,92-50.8c2.7,56,0.3,113,0.3,169.2v10
	C1919,240,128.1,240-7,240z"/>
<rect x="-36" y="207" class="st0" width="1957" height="380"/>
</svg>
