<?xml version="1.0" encoding="utf-8"?>
<!-- Generator: Adobe Illustrator 21.0.0, SVG Export Plug-In . SVG Version: 6.00 Build 0)  -->
<svg version="1.1" id="Layer_2" xmlns="http://www.w3.org/2000/svg" xmlns:xlink="http://www.w3.org/1999/xlink" x="0px" y="0px"
	 viewBox="0 0 1920 693" style="enable-background:new 0 0 1920 693;" xml:space="preserve">
<style type="text/css">
	.st0{fill:#00BCD4;}
</style>
<path class="st0" d="M3,240c-5.3,0-8,0-8,0S3,240,3,240c-0.8-17.2-1.6-34.3-2.4-51.5c-0.3-6.4-4.2-22.6-1.3-28.3
	c6.1-12.5,28.4-11.8,42.8-14.2c211.6-35.9,424.8-14.4,637.5-2.2c181.3,10.4,359.6,3.5,534.6-47.5c57-16.6,110.9-36.6,170.8-41.5
	c98.3-8,197.2,8.6,291.9,33.7c48.5,12.9,99.7,29.2,150.4,23.1c39.9-4.8,64.2-24.8,91.5-50.8c2.6,56,0.3,113,0.3,169.2v10
	C1919,240,137.3,240,3,240z"/>
<rect x="-36" y="207" class="st0" width="1957" height="493"/>
</svg>
